<?xml version="1.0" encoding="iso-8859-1"?>
<!-- Generator: Adobe Illustrator 20.0.0, SVG Export Plug-In . SVG Version: 6.00 Build 0)  -->
<svg version="1.1" id="Layer_1" xmlns="http://www.w3.org/2000/svg" xmlns:xlink="http://www.w3.org/1999/xlink" x="0px" y="0px"
	 viewBox="0 0 58 70" style="enable-background:new 0 0 58 70;" xml:space="preserve">
<g>
	<path style="fill-rule:evenodd;clip-rule:evenodd;fill:#FFC61F;" d="M10,0h25v5H10V0z"/>
	<path style="fill-rule:evenodd;clip-rule:evenodd;fill:#FFC61F;" d="M10,0h13v16H10V0z"/>
	<path style="fill-rule:evenodd;clip-rule:evenodd;fill:#FFC61F;" d="M0,6h10v5H0V6z"/>
	<path style="fill-rule:evenodd;clip-rule:evenodd;fill:#FFC61F;" d="M23,12h22v10H23V12z"/>
	<path style="fill-rule:evenodd;clip-rule:evenodd;fill:#FFC61F;" d="M35,22h10v24H35V22z"/>
	<path style="fill-rule:evenodd;clip-rule:evenodd;fill:#FFC61F;" d="M23,41h22v6H23V41z"/>
	<path style="fill-rule:evenodd;clip-rule:evenodd;fill:#FFC61F;" d="M10,47h13v6H10V47z"/>
	<path style="fill-rule:evenodd;clip-rule:evenodd;fill:#FFC61F;" d="M0,53h10v10H0V53z"/>
	<path style="fill-rule:evenodd;clip-rule:evenodd;fill:#FFC61F;" d="M10,63h13v7H10V63z"/>
	<path style="fill-rule:evenodd;clip-rule:evenodd;fill:#FFC61F;" d="M35,22h23v19H35V22z"/>
	<path style="fill-rule:evenodd;clip-rule:evenodd;fill:#FFC61F;" d="M35,12h23v4H35V12z"/>
</g>
<rect x="35" y="18" style="fill-rule:evenodd;clip-rule:evenodd;fill:#FFC61F;" width="10" height="28"/>
</svg>
